<svg width="155" height="155" viewBox="0 0 155 155" fill="none" xmlns="http://www.w3.org/2000/svg">
<path d="M111 34V27.6C111 27.5448 110.955 27.5 110.9 27.5H34.1C34.0448 27.5 34 27.5448 34 27.6V37.9C34 37.9552 33.9552 38 33.9 38H19.6C19.5448 38 19.5 38.0448 19.5 38.1V50.4C19.5 50.4552 19.5448 50.5 19.6 50.5H110.9C110.955 50.5 111 50.4552 111 50.4V46M111 34C111 34 129.5 32.5 132.5 34C135.5 35.5 134 45 132.5 46C131 47 111 46 111 46M111 34V46M101.5 38H62.5" stroke="black"/>
<path d="M19.5 38C24.9626 29.5704 18.6989 23.9561 23 28C27.3011 32.0439 31.5794 29.865 33.5 38" stroke="black"/>
<path d="M19.5 50.5C21.5898 53.8624 23.0651 55.8148 26.204 59.1834C26.3924 59.3856 26.6568 59.5 26.9331 59.5H102.157C102.379 59.5 102.597 59.4251 102.772 59.288C106.734 56.1873 108.661 54.2533 111 50.5" stroke="black"/>
<path d="M27 59.5C27 79.705 27 91.1619 27 111.113C27 111.616 27.3758 112.048 27.8754 112.11C37.9827 113.357 44.0141 113.35 54.1238 112.109C54.6238 112.048 55 111.622 55 111.119V59.5" stroke="black"/>
<path d="M40.5 113V69H55" stroke="black"/>
<path d="M68.004 60.8016C67.6597 65.4594 66.7419 68.6175 64.8278 70.8859C62.9206 73.1461 60.1428 74.3771 56.4559 75.4804L55.5849 75.7412L55.0723 73.9687L55.9432 73.7079C59.575 72.6212 61.9075 71.5104 63.4504 69.682C64.9862 67.8617 65.8587 65.1837 66.1928 60.6626L66.2611 59.7412L68.0723 59.8802L68.004 60.8016Z" stroke="black"/>
<path d="M55 59.5L61.5 65.3158M64.5 68L61.5 65.3158M55 66.5C57.7094 67.6181 59.1282 67.3385 61.5 65.3158" stroke="black"/>
<path d="M57.8872 64.5482C57.9665 64.7472 58.1673 65.2671 58.1481 65.5195C58.1273 65.7917 57.6684 65.1108 57.4776 64.8803C57.4454 64.8085 57.5446 64.8283 57.6155 64.8683C57.6864 64.9083 57.7261 64.9678 57.767 65.0291" stroke="black" stroke-width="2" stroke-linecap="round"/>
<path d="M59.2232 65.2293C59.1867 65.2656 59.1051 65.4283 59.105 65.4984C59.105 65.5257 59.1342 65.532 59.1528 65.5248C59.3104 65.4638 59.5543 65.2151 59.7066 65.1336C59.805 65.0809 59.8879 65.0666 59.9065 65.0486C59.991 64.9666 59.6975 64.6917 59.2821 64.276C59.0201 64.0139 58.6254 63.6776 58.3928 63.4786C58.1602 63.2796 58.0944 63.2357 57.9252 63.0924C57.756 62.9492 57.4854 62.7078 57.3168 62.5506C57.0839 62.3335 56.9708 62.1647 56.8602 61.995C56.7739 61.8625 56.6533 61.7653 56.4621 61.6256C56.1598 61.4046 55.9437 61.2627 55.8885 61.2002C55.8538 61.1609 55.8114 61.1012 55.7851 61.3745C55.7589 61.6479 55.7515 62.2549 55.7368 62.8564C55.7221 63.458 55.7001 64.0357 55.6925 64.4247C55.6812 64.9965 55.7289 65.2873 55.7806 65.4608C55.8018 65.5321 55.8176 65.5683 55.8288 65.6018C55.8495 65.6638 56.1473 65.8117 56.7405 66.0146C57.0363 66.1157 57.3409 66.1516 57.5612 66.1634C57.913 66.1821 58.0926 66.0938 58.1847 66.0386C58.2926 65.9739 58.388 65.8431 58.4948 65.6702C58.627 65.4562 58.6692 65.0839 58.6327 64.594C58.6134 64.3363 58.523 64.0676 58.456 63.8588C58.3432 63.5067 58.2118 63.3166 58.0976 63.2354C58.0053 63.1697 57.8429 63.2051 57.6549 63.2602C57.4538 63.3191 57.3181 63.5147 57.2074 63.7024C57.0814 63.9161 57.1472 64.2451 57.2501 64.5695C57.3022 64.734 57.4406 64.8645 57.5558 64.9471C57.6709 65.0296 57.7806 65.0516 57.8919 64.9532C58.0033 64.8548 58.113 64.6354 58.1366 64.3578C58.1602 64.0803 58.0944 63.7512 57.9654 63.5487C57.8364 63.3463 57.6463 63.2805 57.4789 63.3636C57.3114 63.4467 57.1725 63.6807 57.1009 63.8268C57.0293 63.973 57.0293 64.0242 57.0293 64.0769" stroke="black" stroke-width="2" stroke-linecap="round"/>
<path d="M79 113.5H68V96.2538C68 96.0872 68.0437 95.919 68.1239 95.7729C72.2232 88.3025 74.6171 88.2229 78.8705 95.769C78.9542 95.9174 79 96.0894 79 96.2598V113.5Z" stroke="black"/>
<path d="M68 99H79" stroke="black"/>
<path d="M72.0091 102.249C71.6406 102.44 71.4036 102.464 71.2242 102.428C71.153 102.404 70.987 102.333 70.7729 102.238C70.6885 102.202 70.6531 102.19 70.6167 102.178" stroke="black" stroke-width="6" stroke-linecap="round"/>
<path d="M73.1872 104.606C73.1872 104.559 73.1755 104.487 73.1576 104.392C73.1184 104.183 73.46 103.811 73.5739 103.239C73.6696 102.759 73.3665 102.382 73.3416 102.137C73.3028 101.754 74.2212 102.047 75.0819 102.018C75.5305 102.002 75.6974 101.892 75.8047 101.892C75.8295 101.892 75.7942 101.892 75.7818 101.91C75.7102 102.013 75.8877 102.46 75.9718 102.778C75.9887 102.842 75.9955 102.938 75.9898 103.316C75.9841 103.695 75.9605 104.354 75.9837 105.242C76.0069 106.13 76.0776 107.225 76.1082 107.831C76.1428 108.519 76.1148 108.958 76.1089 109.523C76.1046 109.928 76.0077 110.186 75.9545 110.341C75.9421 110.377 75.8777 110.377 75.2938 110.318C74.7099 110.26 73.5907 110.13 72.9493 110.063C71.8386 109.948 71.3315 110.163 71.1885 110.187C71.1512 110.193 71.1173 110.222 71.0696 110.258C71.0219 110.294 70.963 110.341 70.915 109.682C70.867 109.023 70.8317 107.656 70.8017 106.905C70.7481 106.059 70.7356 105.856 70.7535 105.607C70.7595 105.464 70.7595 105.288 70.7952 105.034" stroke="black" stroke-width="6" stroke-linecap="round"/>
<path d="M69.4029 100.357C69.2843 100.31 69.118 100.167 69.0519 100.001C69.0255 99.9347 69.0459 99.8239 69.0282 99.7633C69.0105 99.7028 68.9752 99.6911 68.9393 99.6791C68.9034 99.6671 68.8681 99.6554 68.844 99.667C68.7907 99.6926 68.7842 99.8092 68.7663 99.9338C68.757 99.9991 68.7602 100.07 70.339 100.26C71.9177 100.449 75.0751 100.756 76.7252 100.902C78.3754 101.048 78.4225 101.024 78.4821 100.971C78.6224 100.845 78.7324 100.715 78.8097 100.637C78.9356 100.512 78.7809 100.299 78.7094 99.9245C78.6876 99.8106 78.6503 99.6932 78.579 99.6325C78.3279 99.4185 78.1501 99.5361 78.1142 99.5538C77.9824 99.6187 78.4339 99.9381 78.5009 100.19C78.5132 100.236 78.4832 100.297 78.3298 101.423C78.1765 102.549 77.882 104.74 77.7243 106.134C77.5667 107.528 77.5549 108.058 77.6019 108.584C77.6488 109.111 77.7549 109.617 77.8448 109.967C77.982 110.499 78.1137 110.852 78.2026 111.22C78.393 112.008 78.3761 112.448 78.3227 112.549C78.243 112.699 77.9962 112.698 77.7995 112.74C77.6433 112.773 77.4957 112.757 77.1769 112.758C76.9049 112.758 76.4104 112.711 75.3897 112.563C74.3689 112.415 72.8374 112.156 71.9541 112.046C70.8887 111.913 70.5468 112.055 70.2501 112.114C69.9257 112.179 69.7128 112.258 69.6296 112.293C69.4586 112.366 69.3679 112.579 69.3317 112.733C69.3085 112.832 69.0826 112.817 68.9279 112.788C68.8338 112.77 68.8913 112.262 68.897 111.696C68.8989 111.507 68.9616 111.52 69.0094 111.543C69.1096 111.593 69.1765 111.768 69.2122 111.988C69.2343 112.125 69.189 112.21 69.159 112.275C69.1278 112.343 69.3897 112.447 69.6862 112.602C70.0202 112.776 70.6249 112.663 71.4257 112.503C71.8669 112.415 72.3561 112.214 72.6935 112.064C73.0309 111.914 73.1958 111.796 73.3456 111.623C73.4953 111.451 73.6249 111.227 73.7585 110.996" stroke="black" stroke-linecap="round"/>
<path d="M79 113.5H68V96.2538C68 96.0872 68.0437 95.919 68.1239 95.7729C72.2232 88.3025 74.6171 88.2229 78.8705 95.769C78.9542 95.9174 79 96.0894 79 96.2598V113.5Z" stroke="black"/>
<path d="M95 113.36H84V96.1141C84 95.9475 84.0437 95.7793 84.1239 95.6332C88.2232 88.1628 90.6171 88.0831 94.8705 95.6292C94.9542 95.7777 95 95.9497 95 96.1201V113.36Z" stroke="black"/>
<path d="M84 98.8603H95" stroke="black"/>
<path d="M88.0091 102.11C87.6406 102.3 87.4036 102.324 87.2242 102.288C87.153 102.265 86.987 102.194 86.7729 102.098C86.6885 102.062 86.6531 102.05 86.6167 102.038" stroke="black" stroke-width="6" stroke-linecap="round"/>
<path d="M89.1872 104.466C89.1872 104.419 89.1755 104.347 89.1576 104.253C89.1184 104.044 89.46 103.671 89.5739 103.1C89.6696 102.619 89.3665 102.242 89.3416 101.997C89.3028 101.614 90.2212 101.908 91.0819 101.878C91.5305 101.862 91.6974 101.753 91.8047 101.753C91.8295 101.753 91.7942 101.753 91.7818 101.77C91.7102 101.873 91.8877 102.32 91.9718 102.638C91.9887 102.703 91.9955 102.798 91.9898 103.176C91.9841 103.555 91.9605 104.215 91.9837 105.102C92.0069 105.99 92.0776 107.086 92.1082 107.691C92.1428 108.379 92.1148 108.818 92.1089 109.383C92.1046 109.788 92.0077 110.046 91.9545 110.202C91.9421 110.238 91.8777 110.237 91.2938 110.179C90.7099 110.12 89.5907 109.99 88.9493 109.924C87.8386 109.808 87.3315 110.023 87.1885 110.047C87.1512 110.053 87.1173 110.083 87.0696 110.118C87.0219 110.154 86.963 110.201 86.915 109.542C86.867 108.883 86.8317 107.516 86.8017 106.765C86.7481 105.92 86.7356 105.717 86.7535 105.468C86.7595 105.325 86.7595 105.148 86.7952 104.894" stroke="black" stroke-width="6" stroke-linecap="round"/>
<path d="M85.4029 100.218C85.2843 100.17 85.118 100.028 85.0519 99.8614C85.0255 99.795 85.0459 99.6841 85.0282 99.6236C85.0105 99.5631 84.9752 99.5513 84.9393 99.5394C84.9034 99.5274 84.8681 99.5156 84.844 99.5272C84.7907 99.5529 84.7842 99.6695 84.7663 99.7941C84.757 99.8594 84.7602 99.9305 86.339 100.12C87.9177 100.31 91.0751 100.616 92.7252 100.762C94.3754 100.908 94.4225 100.884 94.4821 100.831C94.6224 100.705 94.7324 100.575 94.8097 100.498C94.9356 100.372 94.7809 100.159 94.7094 99.7848C94.6876 99.6709 94.6503 99.5535 94.579 99.4928C94.3279 99.2788 94.1501 99.3964 94.1142 99.4141C93.9824 99.479 94.4339 99.7984 94.5009 100.05C94.5132 100.097 94.4832 100.157 94.3298 101.283C94.1765 102.409 93.882 104.6 93.7243 105.994C93.5667 107.388 93.5549 107.918 93.6019 108.445C93.6488 108.971 93.7549 109.478 93.8448 109.827C93.982 110.36 94.1137 110.712 94.2026 111.08C94.393 111.868 94.3761 112.308 94.3227 112.409C94.243 112.56 93.9962 112.558 93.7995 112.6C93.6433 112.633 93.4957 112.618 93.1769 112.618C92.9049 112.618 92.4104 112.571 91.3897 112.423C90.3689 112.275 88.8374 112.016 87.9541 111.906C86.8887 111.774 86.5468 111.915 86.2501 111.975C85.9257 112.04 85.7128 112.118 85.6296 112.153C85.4586 112.226 85.3679 112.439 85.3317 112.593C85.3085 112.692 85.0826 112.677 84.9279 112.648C84.8338 112.63 84.8913 112.122 84.897 111.556C84.8989 111.367 84.9616 111.38 85.0094 111.404C85.1096 111.453 85.1765 111.629 85.2122 111.849C85.2343 111.985 85.189 112.07 85.159 112.135C85.1278 112.204 85.3897 112.307 85.6862 112.462C86.0202 112.636 86.6249 112.523 87.4257 112.363C87.8669 112.275 88.3561 112.074 88.6935 111.924C89.0309 111.774 89.1958 111.656 89.3456 111.484C89.4953 111.311 89.6249 111.087 89.7585 110.857" stroke="black" stroke-linecap="round"/>
<path d="M95 113.36H84V96.1141C84 95.9475 84.0437 95.7793 84.1239 95.6332C88.2232 88.1628 90.6171 88.0831 94.8705 95.6292C94.9542 95.7777 95 95.9497 95 96.1201V113.36Z" stroke="black"/>
<path d="M111 113.36H100V96.1141C100 95.9475 100.044 95.7793 100.124 95.6332C104.223 88.1628 106.617 88.0831 110.871 95.6292C110.954 95.7777 111 95.9497 111 96.1201V113.36Z" stroke="black"/>
<path d="M100 98.8603H111" stroke="black"/>
<path d="M104.009 102.11C103.641 102.3 103.404 102.324 103.224 102.288C103.153 102.265 102.987 102.194 102.773 102.098C102.688 102.062 102.653 102.05 102.617 102.038" stroke="black" stroke-width="6" stroke-linecap="round"/>
<path d="M105.187 104.466C105.187 104.419 105.175 104.347 105.158 104.253C105.118 104.044 105.46 103.671 105.574 103.1C105.67 102.619 105.366 102.242 105.342 101.997C105.303 101.614 106.221 101.908 107.082 101.878C107.531 101.862 107.697 101.753 107.805 101.753C107.83 101.753 107.794 101.753 107.782 101.77C107.71 101.873 107.888 102.32 107.972 102.638C107.989 102.703 107.996 102.798 107.99 103.176C107.984 103.555 107.961 104.215 107.984 105.102C108.007 105.99 108.078 107.086 108.108 107.691C108.143 108.379 108.115 108.818 108.109 109.383C108.105 109.788 108.008 110.046 107.954 110.202C107.942 110.238 107.878 110.237 107.294 110.179C106.71 110.12 105.591 109.99 104.949 109.924C103.839 109.808 103.331 110.023 103.188 110.047C103.151 110.053 103.117 110.083 103.07 110.118C103.022 110.154 102.963 110.201 102.915 109.542C102.867 108.883 102.832 107.516 102.802 106.765C102.748 105.92 102.736 105.717 102.753 105.468C102.76 105.325 102.76 105.148 102.795 104.894" stroke="black" stroke-width="6" stroke-linecap="round"/>
<path d="M101.403 100.218C101.284 100.17 101.118 100.028 101.052 99.8614C101.026 99.795 101.046 99.6841 101.028 99.6236C101.011 99.5631 100.975 99.5513 100.939 99.5394C100.903 99.5274 100.868 99.5156 100.844 99.5272C100.791 99.5529 100.784 99.6695 100.766 99.7941C100.757 99.8594 100.76 99.9305 102.339 100.12C103.918 100.31 107.075 100.616 108.725 100.762C110.375 100.908 110.422 100.884 110.482 100.831C110.622 100.705 110.732 100.575 110.81 100.498C110.936 100.372 110.781 100.159 110.709 99.7848C110.688 99.6709 110.65 99.5535 110.579 99.4928C110.328 99.2788 110.15 99.3964 110.114 99.4141C109.982 99.479 110.434 99.7984 110.501 100.05C110.513 100.097 110.483 100.157 110.33 101.283C110.177 102.409 109.882 104.6 109.724 105.994C109.567 107.388 109.555 107.918 109.602 108.445C109.649 108.971 109.755 109.478 109.845 109.827C109.982 110.36 110.114 110.712 110.203 111.08C110.393 111.868 110.376 112.308 110.323 112.409C110.243 112.56 109.996 112.558 109.8 112.6C109.643 112.633 109.496 112.618 109.177 112.618C108.905 112.618 108.41 112.571 107.39 112.423C106.369 112.275 104.837 112.016 103.954 111.906C102.889 111.774 102.547 111.915 102.25 111.975C101.926 112.04 101.713 112.118 101.63 112.153C101.459 112.226 101.368 112.439 101.332 112.593C101.308 112.692 101.083 112.677 100.928 112.648C100.834 112.63 100.891 112.122 100.897 111.556C100.899 111.367 100.962 111.38 101.009 111.404C101.11 111.453 101.177 111.629 101.212 111.849C101.234 111.985 101.189 112.07 101.159 112.135C101.128 112.204 101.39 112.307 101.686 112.462C102.02 112.636 102.625 112.523 103.426 112.363C103.867 112.275 104.356 112.074 104.693 111.924C105.031 111.774 105.196 111.656 105.346 111.484C105.495 111.311 105.625 111.087 105.758 110.857" stroke="black" stroke-linecap="round"/>
<path d="M111 113.36H100V96.1141C100 95.9475 100.044 95.7793 100.124 95.6332C104.223 88.1628 106.617 88.0831 110.871 95.6292C110.954 95.7777 111 95.9497 111 96.1201V113.36Z" stroke="black"/>
</svg>
